<svg width="83" height="83" viewBox="0 0 83 83" fill="none" xmlns="http://www.w3.org/2000/svg">
<path fill-rule="evenodd" clip-rule="evenodd" d="M28.3687 6.93042C32.7296 6.93042 36.3367 10.745 36.9315 15.7077L66.2686 45.0482L39.3696 71.9471C38.4062 72.9107 37.2624 73.6751 36.0035 74.1966C34.7447 74.7181 33.3954 74.9865 32.0328 74.9865C30.6702 74.9865 29.3209 74.7181 28.062 74.1966C26.8032 73.6751 25.6594 72.9107 24.6959 71.9471L10.0291 57.2768C9.06554 56.3134 8.30117 55.1696 7.77966 53.9107C7.25816 52.6519 6.98975 51.3026 6.98975 49.94C6.98975 48.5774 7.25816 47.2281 7.77966 45.9692C8.30117 44.7104 9.06554 43.5666 10.0291 42.6031L19.7263 32.9025V17.1567C19.7263 11.5093 23.5996 6.93042 28.3721 6.93042H28.3687ZM30.0978 17.1567V22.5275L26.6395 25.9858V17.1567C26.6395 16.0258 27.4142 15.1128 28.3687 15.1128C29.3266 15.1128 30.0978 16.0258 30.0978 17.1567ZM30.0978 37.6093V32.3077L14.9158 47.4932C14.2674 48.1417 13.9032 49.0212 13.9032 49.9383C13.9032 50.8553 14.2674 51.7348 14.9158 52.3833L29.5895 67.057C30.238 67.7053 31.1175 68.0696 32.0345 68.0696C32.9515 68.0696 33.831 67.7053 34.4796 67.057L56.4884 45.0482L37.018 25.5778V37.6128L37.0076 38.0554H30.0563C30.084 37.9083 30.0979 37.759 30.0978 37.6093V37.6093Z" fill="#F8F8F8"/>
<path d="M58.304 58.3593C56.8528 59.8101 55.8643 61.6588 55.4637 63.6714C55.0632 65.6841 55.2684 67.7703 56.0536 69.6662C56.8388 71.5622 58.1686 73.1828 59.8748 74.3229C61.581 75.4631 63.5871 76.0716 65.6392 76.0716C67.6913 76.0716 69.6973 75.4631 71.4035 74.3229C73.1098 73.1828 74.4396 71.5622 75.2247 69.6662C76.0099 67.7703 76.2152 65.6841 75.8146 63.6714C75.414 61.6588 74.4256 59.8101 72.9743 58.3593L65.6392 51.0242L58.304 58.3558V58.3593Z" fill="#F8F8F8"/>
</svg>
