<svg width="281" height="98" viewBox="0 0 281 98" fill="none" xmlns="http://www.w3.org/2000/svg">
<path d="M23.5137 70H27.0332V23.5156H23.5137V70ZM30.0879 70.0664H38.123C42.9486 70.0664 46.6895 68.3398 49.3457 64.8867C51.2051 62.4518 52.1348 59.6406 52.1348 56.4531C52.1348 52.7786 50.8952 49.8125 48.416 47.5547C48.0618 47.2448 47.7077 46.9349 47.3535 46.625C50.1868 44.5 51.7142 41.556 51.9355 37.793C51.9355 37.4831 51.9355 37.1953 51.9355 36.9297C51.9355 32.9453 50.5632 29.6693 47.8184 27.1016C45.2507 24.7109 41.9303 23.5156 37.8574 23.5156H30.0879V26.7695H37.5918C42.0632 26.7695 45.2507 28.5404 47.1543 32.082C47.9954 33.6758 48.416 35.3138 48.416 36.9961C48.3275 42.3086 45.3392 44.987 39.4512 45.0312H30.0879V48.2852H39.4512C45.0293 48.2852 48.0618 50.5651 48.5488 55.125C48.5931 55.5234 48.6152 55.944 48.6152 56.3867C48.6152 60.0169 47.1543 62.7839 44.2324 64.6875C41.9746 66.1042 39.1191 66.8125 35.666 66.8125H30.0879V70.0664ZM57.248 60.7695V35.4023H60.7012V60.3711C60.7012 62.0977 61.6309 63.6693 63.4902 65.0859C64.9512 66.2812 66.5892 66.8789 68.4043 66.8789V70.332C64.2428 70.332 61.0775 68.7161 58.9082 65.4844C57.8014 63.8464 57.248 62.2747 57.248 60.7695ZM71.2598 70.332V66.8789C74.0046 66.8789 76.1517 65.7943 77.7012 63.625C78.498 62.5182 78.8965 61.4336 78.8965 60.3711V35.4023H82.416V60.7695C82.416 62.806 81.4863 64.7982 79.627 66.7461C77.3691 69.0924 74.5801 70.2878 71.2598 70.332ZM87.5957 60.5039C87.5957 62.8945 88.5033 65.0417 90.3184 66.9453C92.3548 68.9818 95.0111 70 98.2871 70V66.6797C95.6751 66.6797 93.6165 65.5951 92.1113 63.4258C91.403 62.4076 91.0488 61.4336 91.0488 60.5039V45.0977C91.0488 43.3268 91.9121 41.7331 93.6387 40.3164C95.0553 39.1654 96.627 38.5898 98.3535 38.5898V35.2695C94.2806 35.2695 91.2038 36.8633 89.123 40.0508C88.1048 41.6888 87.5957 43.3047 87.5957 44.8984V60.5039ZM101.275 38.6562C103.533 38.6562 105.304 39.5859 106.588 41.4453C107.296 42.4635 107.717 43.6367 107.85 44.9648V46.1602L111.17 44.9648C111.17 41.8216 109.886 39.276 107.318 37.3281C105.503 35.9557 103.489 35.2695 101.275 35.2695V38.6562ZM101.209 70.0664C104.352 70.0664 107.053 68.8932 109.311 66.5469C111.081 64.6875 111.945 62.6068 111.9 60.3047L108.646 59.043C108.646 59.1315 108.624 59.3307 108.58 59.6406C108.58 59.9062 108.58 60.0833 108.58 60.1719C108.27 62.6953 106.964 64.599 104.662 65.8828C103.555 66.4583 102.404 66.7461 101.209 66.7461V70.0664ZM116.482 70V23.5156H120.002V70H116.482ZM121.529 52.668L138.529 35.4023H143.244L126.244 52.668L143.244 70H138.529L121.529 52.668ZM147.229 60.5039V44.6328C147.273 42.5521 148.247 40.5599 150.15 38.6562C152.32 36.3984 154.998 35.2695 158.186 35.2695V38.5234C155.662 38.5234 153.581 39.6523 151.943 41.9102C151.102 43.0612 150.682 44.1458 150.682 45.1641V50.4102H168.744V45.1641C168.744 42.9505 167.66 41.1576 165.49 39.7852C164.118 38.8997 162.701 38.457 161.24 38.457V35.2695C164.206 35.2695 166.863 36.3542 169.209 38.5234C171.157 40.3828 172.153 42.3971 172.197 44.5664V53.7305H150.682V60.5039C150.682 61.8763 151.523 63.293 153.205 64.7539C154.799 66.082 156.481 66.7461 158.252 66.7461V70C154.356 70 151.279 68.4062 149.021 65.2188C147.826 63.5365 147.229 61.9648 147.229 60.5039ZM161.24 70V66.5469C164.118 66.5469 166.376 65.3294 168.014 62.8945C168.501 62.1419 168.833 61.4336 169.01 60.7695L172.264 61.8984C171.29 65.1302 169.32 67.4544 166.354 68.8711C164.76 69.6237 163.055 70 161.24 70ZM176.115 39.3203V35.9336H180.365V23.3828H183.818V35.9336H188.068V39.3203H183.818V59.3086C183.818 62.9831 185.058 65.263 187.537 66.1484C188.555 66.4583 189.729 66.6133 191.057 66.6133H191.322L192.119 70H190.725C185.368 69.9557 182.114 67.875 180.963 63.7578C180.564 62.3411 180.365 60.6589 180.365 58.7109V39.3203H176.115ZM193.514 60.8359L196.834 60.2383C196.834 62.5404 198.051 64.4219 200.486 65.8828C201.814 66.6354 203.12 67.0339 204.404 67.0781V70.332C200.553 70.332 197.542 68.8932 195.373 66.0156C194.133 64.3333 193.514 62.6068 193.514 60.8359ZM193.779 45.3633C193.779 41.3346 195.572 38.3685 199.158 36.4648C200.84 35.5794 202.545 35.1367 204.271 35.1367V38.457C202.191 38.457 200.398 39.3203 198.893 41.0469C197.742 42.3307 197.166 43.7695 197.166 45.3633C197.166 46.9128 198.251 48.1081 200.42 48.9492C201.261 49.3034 204.604 50.1888 210.447 51.6055C210.757 51.694 211.045 51.7604 211.311 51.8047C215.959 53 218.438 55.3906 218.748 58.9766C218.748 59.1979 218.748 59.4193 218.748 59.6406C218.748 63.5807 217.132 66.5469 213.9 68.5391C211.908 69.7344 209.673 70.332 207.193 70.332V67.0781C209.495 67.0781 211.51 66.2591 213.236 64.6211C214.653 63.2487 215.361 61.6107 215.361 59.707C215.361 57.7148 213.524 56.1432 209.85 54.9922C209.628 54.9036 206.817 54.2174 201.416 52.9336C201.018 52.8451 200.663 52.7565 200.354 52.668C196.458 51.5169 194.288 49.4805 193.846 46.5586C193.801 46.1602 193.779 45.7617 193.779 45.3633ZM207.127 38.5234V35.1367C210.846 35.1367 213.812 36.5312 216.025 39.3203C217.442 41.0469 218.15 42.862 218.15 44.7656L214.83 45.2969C214.83 42.6849 213.391 40.7148 210.514 39.3867C209.274 38.8112 208.145 38.5234 207.127 38.5234Z" fill="url(#paint0_linear_108_133)"/>
<path d="M227.534 28.233H225.217C224.898 28.2333 224.583 28.3024 224.293 28.4356C224.003 28.5687 223.745 28.7629 223.537 29.0047C223.329 29.2465 223.176 29.5304 223.087 29.8369C222.999 30.1434 222.977 30.4654 223.024 30.781L229.115 71.3934C229.352 72.9691 230.146 74.4076 231.353 75.4477C232.56 76.4878 234.1 77.0606 235.693 77.062H268C269.595 77.0617 271.136 76.4894 272.344 75.4492C273.552 74.409 274.346 72.9699 274.583 71.3934L280.678 30.781C280.725 30.4654 280.704 30.1434 280.616 29.8369C280.527 29.5304 280.374 29.2465 280.165 29.0047C279.957 28.7629 279.699 28.5687 279.41 28.4356C279.12 28.3024 278.804 28.2333 278.485 28.233H276.168C275.623 22.1599 272.826 16.5105 268.326 12.3961C263.826 8.28163 257.949 6 251.851 6C245.754 6 239.877 8.28163 235.377 12.3961C230.877 16.5105 228.079 22.1599 227.534 28.233V28.233ZM231.996 28.233C232.538 23.347 234.864 18.8327 238.527 15.554C242.19 12.2753 246.933 10.4625 251.849 10.4625C256.765 10.4625 261.509 12.2753 265.172 15.554C268.835 18.8327 271.16 23.347 271.703 28.233H231.996V28.233ZM275.906 32.672L270.198 70.732C270.119 71.2575 269.855 71.7374 269.452 72.0844C269.05 72.4314 268.536 72.6225 268.005 72.623H235.693C235.162 72.6225 234.648 72.4314 234.246 72.0844C233.844 71.7374 233.579 71.2575 233.5 70.732L227.792 32.672H275.902H275.906Z" fill="url(#paint1_linear_108_133)"/>
<path d="M245.503 65H248.026V39.0234H245.503V65ZM249.808 65.0371H253.667C256.438 65.0371 258.553 64.0475 260.013 62.0684C261.002 60.7572 261.497 59.2357 261.497 57.5039C261.472 55.1536 260.582 53.3105 258.825 51.9746C260.26 50.9108 261.101 49.377 261.349 47.373C261.373 47.0762 261.386 46.7793 261.386 46.4824C261.386 44.2559 260.619 42.4251 259.085 40.9902C257.65 39.679 255.807 39.0234 253.556 39.0234H249.808V41.3242H253.296C255.671 41.3242 257.328 42.2643 258.269 44.1445C258.664 44.9362 258.862 45.7526 258.862 46.5938C258.813 49.3893 257.254 50.7995 254.187 50.8242H249.808V53.0879H254.187C256.933 53.0879 258.504 54.1888 258.899 56.3906C258.949 56.7122 258.974 57.0462 258.974 57.3926C258.974 59.248 258.219 60.6706 256.71 61.6602C255.597 62.3776 254.174 62.7363 252.442 62.7363H249.808V65.0371Z" fill="url(#paint2_linear_108_133)"/>
<defs>
<linearGradient id="paint0_linear_108_133" x1="120.5" y1="0" x2="120.5" y2="86" gradientUnits="userSpaceOnUse">
<stop stop-color="#CE4DA4"/>
<stop offset="1" stop-color="#8A79FF"/>
</linearGradient>
<linearGradient id="paint1_linear_108_133" x1="251.851" y1="6" x2="251.851" y2="77.062" gradientUnits="userSpaceOnUse">
<stop stop-color="#CE4DA4"/>
<stop offset="1" stop-color="#8A79FF"/>
</linearGradient>
<linearGradient id="paint2_linear_108_133" x1="253.5" y1="26" x2="253.5" y2="98" gradientUnits="userSpaceOnUse">
<stop stop-color="#CE4DA4"/>
<stop offset="1" stop-color="#8A79FF"/>
</linearGradient>
</defs>
</svg>
